<!DOCTYPE svg PUBLIC "-//W3C//DTD SVG 1.1//EN" "http://www.w3.org/Graphics/SVG/1.1/DTD/svg11.dtd">
<!-- Uploaded to: SVG Repo, www.svgrepo.com, Transformed by: SVG Repo Mixer Tools -->
<svg fill="#ffffff" height="800px" width="800px" version="1.1" id="Capa_1" xmlns="http://www.w3.org/2000/svg" xmlns:xlink="http://www.w3.org/1999/xlink" viewBox="0 0 290.002 290.002" xml:space="preserve" stroke="#ffffff">
<g id="SVGRepo_bgCarrier" stroke-width="0"/>
<g id="SVGRepo_tracerCarrier" stroke-linecap="round" stroke-linejoin="round"/>
<g id="SVGRepo_iconCarrier"> <g> <path id="path10942" d="M145.202,0.005c-1.094-0.044-2.172,0.273-3.068,0.9c-48.9,34.23-97.549,39.096-137.133,39.096 c-2.762,0-5.001,2.239-5.001,5c0,0.248,0.018,0.496,0.055,0.742c7.51,50.064,17.482,110.381,38.484,158.75 c10.501,24.185,23.784,45.447,41.199,60.818s39.095,24.689,65.262,24.689s47.846-9.318,65.262-24.689s30.698-36.634,41.199-60.818 c21.002-48.369,30.975-108.686,38.484-158.75c0.41-2.731-1.472-5.277-4.203-5.687c-0.246-0.037-0.494-0.055-0.742-0.055 c-39.167,0-88.268-9.792-137.428-39.287C146.854,0.283,146.039,0.039,145.202,0.005z M145.241,10.839 c47.55,27.833,94.886,38.075,133.928,38.979c-7.407,48.796-17.354,105.726-36.879,150.691 c-10.124,23.315-22.779,43.303-38.645,57.307c-15.866,14.004-34.811,22.186-58.645,22.186s-42.779-8.182-58.645-22.186 c-15.866-14.004-28.521-33.991-38.645-57.307C28.197,155.565,18.25,98.672,10.844,49.892 C49.615,49.391,97.397,43.35,145.241,10.839z M84.739,52.659c-0.225,0.003-0.448,0.037-0.664,0.1 c-19.652,5.421-38.533,7.916-55.889,8.967c-1.378,0.083-2.428,1.268-2.346,2.646c0.005,0.083,0.014,0.165,0.027,0.247 c7.165,44.459,16.773,92.825,33.311,130.912c0.521,1.279,1.979,1.894,3.258,1.373c1.279-0.521,1.894-1.979,1.373-3.258 c-0.014-0.035-0.03-0.07-0.046-0.105C47.883,156.964,38.37,110.079,31.27,66.489c16.863-1.159,35.102-3.661,54.133-8.91 c1.336-0.347,2.138-1.712,1.791-3.049C86.905,53.416,85.891,52.643,84.739,52.659z M142.919,80.749 c-13.813,0-27.627,4.708-38.848,14.123c-11.221,9.415-18.271,22.208-20.668,35.801c-1.198,6.796-1.239,13.796-0.061,20.689 c0.428,2.506,1.022,4.997,1.775,7.459l-9.771,5.641c-2.232,1.289-2.996,4.144-1.706,6.376c0.455,0.787,1.129,1.424,1.941,1.833 l25.654,12.926c2.302,1.159,5.108,0.232,6.267-2.071c0.287-0.571,0.454-1.194,0.491-1.832l1.633-28.68 c0.146-2.573-1.822-4.778-4.395-4.924c-0.045-0.003-0.091-0.004-0.136-0.006c-0.862-0.024-1.714,0.192-2.461,0.623l-8.58,4.953 c-0.338-1.32-0.626-2.648-0.854-3.982c-0.983-5.748-0.95-11.594,0.051-17.27c2.002-11.351,7.861-22,17.248-29.877 c18.775-15.754,46.063-15.754,64.838,0c5.12,4.439,11.689-3.389,6.428-7.66C170.544,85.457,156.731,80.749,142.919,80.749z M186.512,104.116c-2.413,0.081-4.366,1.988-4.504,4.398l-1.633,28.682c-0.146,2.573,1.822,4.778,4.395,4.924 c0.907,0.051,1.81-0.163,2.597-0.617l9.25-5.34c0.39,1.47,0.713,2.951,0.967,4.438c0.989,5.787,0.957,11.67-0.051,17.383 c-2.015,11.426-7.915,22.146-17.363,30.074c-18.897,15.856-46.369,15.856-65.266,0c-4.769-4.02-10.787,3.152-6,7.15 c22.319,18.728,54.946,18.728,77.266,0c11.16-9.364,18.171-22.086,20.555-35.604c1.192-6.758,1.23-13.722,0.059-20.576v-0.002 c-0.441-2.578-1.054-5.14-1.84-7.67l9.711-5.607c2.232-1.289,2.996-4.144,1.706-6.376c-0.455-0.787-1.129-1.424-1.941-1.833 l-25.654-12.928C188.068,104.261,187.293,104.09,186.512,104.116z M190.923,116.149l11.582,5.836l-12.32,7.113L190.923,116.149z M99.817,161.112l-0.738,12.947l-11.582-5.836L99.817,161.112z"/> </g> </g>
</svg>