<!DOCTYPE svg PUBLIC "-//W3C//DTD SVG 1.1//EN" "http://www.w3.org/Graphics/SVG/1.1/DTD/svg11.dtd">
<!-- Uploaded to: SVG Repo, www.svgrepo.com, Transformed by: SVG Repo Mixer Tools -->
<svg fill="#ffffff" version="1.1" id="Capa_1" xmlns="http://www.w3.org/2000/svg" xmlns:xlink="http://www.w3.org/1999/xlink" width="800px" height="800px" viewBox="0 0 36.764 36.764" xml:space="preserve" stroke="#ffffff">
<g id="SVGRepo_bgCarrier" stroke-width="0"/>
<g id="SVGRepo_tracerCarrier" stroke-linecap="round" stroke-linejoin="round"/>
<g id="SVGRepo_iconCarrier"> <g> <path d="M19.076,15.415l-0.682,1.271c-0.004,0-0.008,0.001-0.012,0.001c-0.618,0-1.204-0.127-1.75-0.334l1.293-0.996l0.274-0.769 L19.076,15.415z M23.353,11.716c0-2.741-2.229-4.971-4.97-4.971s-4.97,2.229-4.97,4.971c0,1.607,0.78,3.025,1.968,3.935 l1.433-1.104l0.541-1.519v-1.417l-1.474,1.224l-0.842-1.015l2.352-1.951c-0.32-0.228-0.529-0.6-0.529-1.021 c0-0.694,0.563-1.257,1.256-1.257c0.693,0,1.257,0.562,1.257,1.257c0,0.428-0.217,0.807-0.544,1.033l1.042,0.999l1.071-0.842 l0.813,1.037l-1.977,1.548l-1.108-1.065v1.662l2.042,1.928l-0.659,1.229C21.972,15.685,23.353,13.866,23.353,11.716z M32.881,20.131c0,0,0.035,1.03-1.561,1.062c0,0-0.396,0.053-0.281,0.932l0.018,1.278c0,0-0.051,0.381-0.748,0.612 c0,0-0.133,0.133,0.066,0.384c0,0,0.365,0.409-0.268,1.294c-0.232,0.324-0.613,0.73-0.381,1.562c0,0,0.299,1.606-0.332,1.992 c0,0-0.717,0.852-3.604,0.494c-1.01-0.124-2.871-0.611-3.982,0.782c0,0-2.656,5.045-2.857,6.239c0,0-4.53-8.067-10.061-9.312 c0,0,1.346-3.037-1.393-6.973c0,0-3.436-4.532-3.537-7.021c0,0-0.906-4.195,3.377-8.978C9.397,2.181,12.119,0.047,18.844,0 c2.627-0.021,6.639,0.601,9.76,3.9c1.889,1.993,3.279,4.512,2.883,8.627c-0.086,0.894-1.359,1.927-0.465,3.651 C31.023,16.181,32.946,19.567,32.881,20.131z M26.727,10.716h-1.454c-0.17-1.175-0.632-2.254-1.312-3.164l1.028-1.03l-1.414-1.414 l-1.028,1.03c-0.91-0.681-1.988-1.144-3.163-1.313V3.37h-2v1.454c-1.174,0.17-2.253,0.633-3.162,1.313l-1.03-1.03l-1.414,1.414 l1.03,1.03c-0.681,0.91-1.143,1.988-1.313,3.163h-1.454v2h1.454c0.17,1.174,0.632,2.252,1.312,3.162l-1.03,1.029l1.414,1.414 l1.03-1.028c0.91,0.681,1.988,1.142,3.163,1.312v1.453h2v-1.453c1.175-0.17,2.254-0.632,3.164-1.312l1.028,1.029l1.414-1.414 l-1.028-1.029c0.681-0.91,1.143-1.988,1.312-3.163h1.454L26.727,10.716L26.727,10.716z"/> </g> </g>
</svg>